HIERARCHY
ROOT Hips
{
 OFFSET 0.000000 0.000000 0.000000
 CHANNELS 6 Xposition Yposition Zposition Yrotation Xrotation Zrotation
 JOINT Chest
 {
  OFFSET 0.000000 9.585900 0.002600
  CHANNELS 3 Yrotation Xrotation Zrotation
  JOINT Chest2
  {
   OFFSET 0.000000 9.601200 -0.005300
   CHANNELS 3 Yrotation Xrotation Zrotation
   JOINT Chest3
   {
    OFFSET 0.000000 9.561800 0.000000
    CHANNELS 3 Yrotation Xrotation Zrotation
    JOINT Chest4
    {
     OFFSET 0.000000 9.552100 0.000000
     CHANNELS 3 Yrotation Xrotation Zrotation
     JOINT Neck
     {
      OFFSET 0.000000 14.453000 0.000000
      CHANNELS 3 Yrotation Xrotation Zrotation
      JOINT Head
      {
       OFFSET 0.000000 8.936500 -0.011300
       CHANNELS 3 Yrotation Xrotation Zrotation
       End Site
       {
        OFFSET 0.000000 17.073600 -0.006000
       }
      }
     }
     JOINT RightCollar
     {
      OFFSET -2.921100 9.558500 0.000000
      CHANNELS 3 Yrotation Xrotation Zrotation
      JOINT RightShoulder
      {
       OFFSET -13.519700 0.000000 0.000000
       CHANNELS 3 Yrotation Xrotation Zrotation
       JOINT RightElbow
       {
        OFFSET 0.000000 -29.696600 0.000000
        CHANNELS 3 Yrotation Xrotation Zrotation
        JOINT RightWrist
        {
         OFFSET 0.000000 -24.004700 0.000000
         CHANNELS 3 Yrotation Xrotation Zrotation
         End Site
         {
          OFFSET 0.000000 -17.728500 0.000000
         }
        }
       }
      }
     }
     JOINT LeftCollar
     {
      OFFSET 2.921100 9.558500 0.000000
      CHANNELS 3 Yrotation Xrotation Zrotation
      JOINT LeftShoulder
      {
       OFFSET 13.519700 0.000000 0.000000
       CHANNELS 3 Yrotation Xrotation Zrotation
       JOINT LeftElbow
       {
        OFFSET 0.000000 -29.696600 0.000000
        CHANNELS 3 Yrotation Xrotation Zrotation
        JOINT LeftWrist
        {
         OFFSET 0.000000 -24.004700 0.000000
         CHANNELS 3 Yrotation Xrotation Zrotation
         End Site
         {
          OFFSET 0.000000 -17.728500 0.000000
         }
        }
       }
      }
     }
    }
   }
  }
 }
 JOINT RightHip
 {
  OFFSET -7.771700 -0.012900 -0.001300
  CHANNELS 3 Yrotation Xrotation Zrotation
  JOINT RightKnee
  {
   OFFSET 0.000000 -40.869800 0.001200
   CHANNELS 3 Yrotation Xrotation Zrotation
   JOINT RightAnkle
   {
    OFFSET 0.000000 -39.717900 0.002100
    CHANNELS 3 Yrotation Xrotation Zrotation
    JOINT RightToe
    {
     OFFSET 0.000000 -4.965400 11.033500
     CHANNELS 3 Yrotation Xrotation Zrotation
     End Site
     {
      OFFSET 0.000000 -1.423100 5.872300
     }
    }
   }
  }
 }
 JOINT LeftHip
 {
  OFFSET 7.771700 -0.012900 -0.001300
  CHANNELS 3 Yrotation Xrotation Zrotation
  JOINT LeftKnee
  {
   OFFSET 0.000000 -40.869800 0.001200
   CHANNELS 3 Yrotation Xrotation Zrotation
   JOINT LeftAnkle
   {
    OFFSET 0.000000 -39.717900 0.002100
    CHANNELS 3 Yrotation Xrotation Zrotation
    JOINT LeftToe
    {
     OFFSET 0.000000 -4.965400 11.033500
     CHANNELS 3 Yrotation Xrotation Zrotation
     End Site
     {
      OFFSET 0.000000 -1.423100 5.872300
     }
    }
   }
  }
 }
}
MOTION
Frames: 8
Frame Time: 0.008333
0.000000 85.388000 0.000000 0.000000 -5.767877 0.000000 0.000000 11.653817 0.000000 0.000000 -5.885947 0.000000 0.000000 -0.000000 0.000000 0.000000 -0.000000 0.000000 0.000000 12.528835 0.000000 0.000000 0.711642 0.000000 0.000000 -0.000000 0.000000 0.000000 0.000000 -90.000000 0.000000 -2.309062 0.000000 0.000000 2.309062 0.000000 0.000000 -0.000000 0.000000 0.000000 -0.000000 90.000000 0.000000 -2.309062 0.000000 0.000000 2.309062 0.000000 0.000000 8.520406 0.000000 0.000000 1.905762 0.000000 -0.000000 -4.658285 0.000000 0.000000 -0.000000 0.000000 0.000000 8.520406 0.000000 0.000000 1.905762 0.000000 -0.000000 -4.658285 0.000000 0.000000 -0.000000 0.000000
-65.935687 63.338414 12.169199 165.156845 -53.756481 -2.484764 8.063248 25.605020 5.738983 1.243048 4.414996 0.525977 1.992008 6.988462 0.904096 6.555593 20.916161 3.593257 1.401657 23.928055 -1.123681 2.735502 8.731409 -2.510955 6.718702 8.230017 7.727707 -7.934355 -27.931636 -9.281942 -69.171973 -42.262357 96.586997 -6.417177 -21.787185 -19.342287 -7.644582 9.764831 3.372253 29.603381 -15.849072 -1.293102 93.657070 -55.569066 -105.190917 24.726350 -22.729612 14.579574 -5.126690 -6.469781 8.843339 -27.511488 73.610024 -25.159349 1.368319 -13.227834 -2.675583 -0.335999 0.846794 -0.160972 -4.339818 -13.294651 -1.297121 12.892892 63.352537 6.857119 -2.631796 -9.716706 0.170108 -0.257899 -0.611505 -0.131821
-65.939774 63.348116 12.179094 165.149123 -53.761692 -2.490632 8.087429 25.640153 5.684622 1.250545 4.430466 0.535584 2.005535 7.016031 0.895777 6.579484 20.949944 3.564945 1.401101 23.837409 -1.125506 2.797740 8.512420 -2.371605 6.689726 8.282313 7.792722 -7.946871 -27.879049 -9.366670 -68.642915 -41.900785 96.091530 -6.479875 -21.822254 -19.313082 -7.703826 9.839405 3.369377 29.489989 -15.734550 -1.155692 93.576814 -55.843126 -105.008503 24.689910 -22.729151 14.456195 -5.123615 -6.451908 8.856309 -27.468271 73.574263 -25.118995 1.361332 -13.208286 -2.672685 -0.326274 0.847760 -0.159679 -4.337793 -13.270100 -1.317189 12.913654 63.308023 6.909177 -2.607602 -9.728091 0.162050 -0.271286 -0.589964 -0.144390
-65.939745 63.363780 12.188347 165.169347 -53.791797 -2.546287 8.107844 25.709954 5.681242 1.260682 4.450110 0.530797 2.020972 7.044982 0.888487 6.608489 20.984224 3.539937 1.429688 23.712929 -1.069978 2.837897 8.280539 -2.282024 6.653079 8.319056 7.841493 -7.985970 -27.796973 -9.427792 -68.211081 -41.597083 95.734820 -6.537940 -21.859669 -19.271665 -7.745602 9.895142 3.385892 29.392069 -15.620419 -1.052116 93.558497 -56.115361 -104.904590 24.665719 -22.712011 14.318847 -5.152634 -6.377309 8.896649 -27.362820 73.502123 -25.028654 1.357688 -13.212207 -2.674517 -0.317879 0.878005 -0.155489 -4.357491 -13.211941 -1.308379 12.929040 63.259999 6.957881 -2.604064 -9.752517 0.172073 -0.270999 -0.557668 -0.175625
-65.940203 63.376759 12.201029 165.132935 -53.786043 -2.561917 8.162321 25.753216 5.684014 1.271697 4.469102 0.526739 2.037832 7.073002 0.882320 6.642284 21.015976 3.519084 1.447050 23.572564 -1.000040 2.892517 8.039423 -2.216792 6.605264 8.344334 7.879819 -8.034024 -27.683681 -9.473210 -67.876647 -41.367360 95.493506 -6.585896 -21.895271 -19.218180 -7.769159 9.933233 3.420129 29.287261 -15.507350 -0.986172 93.576157 -56.341895 -104.851006 24.652491 -22.684528 14.157297 -5.146898 -6.358356 8.940689 -27.284764 73.440624 -24.954893 1.362037 -13.181773 -2.677104 -0.311769 0.880425 -0.154719 -4.347136 -13.194882 -1.291856 12.953845 63.215866 7.014910 -2.588796 -9.760097 0.167935 -0.272973 -0.553794 -0.186804
-65.943143 63.391545 12.211733 165.092318 -53.780125 -2.558328 8.212471 25.804777 5.677571 1.282516 4.486032 0.523166 2.054425 7.098004 0.876986 6.677026 21.043271 3.501580 1.458022 23.435921 -0.941050 2.962757 7.792389 -2.155993 6.550361 8.363699 7.905517 -8.092277 -27.541246 -9.500582 -67.630159 -41.219541 95.351307 -6.617509 -21.922214 -19.157182 -7.774342 9.956004 3.467228 29.187107 -15.389500 -0.965467 93.625599 -56.508527 -104.878256 24.639346 -22.645682 13.993205 -5.139782 -6.342584 8.967254 -27.217452 73.395494 -24.894827 1.362804 -13.166781 -2.678199 -0.314604 0.870325 -0.147941 -4.331176 -13.181441 -1.286960 12.984991 63.179605 7.067914 -2.579833 -9.759683 0.171494 -0.313290 -0.563158 -0.202136
-65.949542 63.403676 12.222462 165.025487 -53.744790 -2.513180 8.262398 25.834816 5.652737 1.291777 4.499890 0.520080 2.068644 7.118477 0.872355 6.707114 21.065216 3.486718 1.489020 23.312051 -0.910022 3.034750 7.543386 -2.084691 6.497702 8.382180 7.910845 -8.177674 -27.374431 -9.500181 -67.454470 -41.148749 95.300328 -6.630704 -21.935111 -19.085385 -7.757196 9.963001 3.518235 29.114479 -15.261530 -0.987857 93.678763 -56.615275 -104.980837 24.616417 -22.593803 13.833011 -5.117445 -6.362922 8.976103 -27.155672 73.369339 -24.843893 1.348213 -13.186715 -2.656452 -0.305462 0.892710 -0.162976 -4.299425 -13.202233 -1.298486 13.020710 63.146849 7.119893 -2.577957 -9.752287 0.174855 -0.317939 -0.581302 -0.209552
-65.953185 63.412162 12.235004 164.998684 -53.674373 -2.516729 8.288294 25.833191 5.648103 1.298341 4.468829 0.527282 2.078273 7.175207 0.860157 6.729573 21.081435 3.474475 1.567011 23.193268 -0.891462 3.089618 7.309123 -2.011231 6.450676 8.402456 7.893477 -8.298377 -27.186166 -9.470816 -67.334634 -41.142938 95.336195 -6.626758 -21.934709 -18.995593 -7.716975 9.955824 3.566226 29.086568 -15.125986 -1.045144 93.700278 -56.675005 -105.119437 24.579883 -22.538116 13.670846 -5.114642 -6.421766 9.003151 -27.126990 73.331027 -24.809501 1.343078 -13.164336 -2.656175 -0.293787 0.886198 -0.161752 -4.296692 -13.260736 -1.291886 13.038575 63.108616 7.172261 -2.588154 -9.737064 0.146652 -0.310487 -0.596073 -0.197263
